<svg width="383" height="652" viewBox="0 0 383 652" fill="none" xmlns="http://www.w3.org/2000/svg">
<g clip-path="url(#clip0_1151_2)">
<path d="M269.777 184.786C265.278 176.818 257.661 171.165 248.327 168.873C243.916 167.791 239.45 167.067 234.96 166.52C249.921 155.71 255.59 134.967 247.042 118.665C242.852 110.684 235.872 104.988 227.378 102.626C226.403 102.354 225.406 102.309 224.422 102.133C224.373 102.04 224.347 101.939 224.297 101.846C220.108 93.8649 213.127 88.1693 204.633 85.8072C195.819 83.3526 186.431 84.7702 178.233 89.7292C174.635 91.9046 171.16 94.2911 167.811 96.871C167.771 92.6439 167.502 88.437 166.99 84.2631C165.834 74.7254 161.132 66.4895 153.768 61.0789C146.664 55.8577 137.873 53.8861 128.983 55.5208C128.887 55.537 128.799 55.5759 128.696 55.5948C127.95 54.9302 127.298 54.1734 126.485 53.5828C119.381 48.3616 110.59 46.39 101.718 48.027C83.6426 51.3477 70.8108 68.6338 71.5552 87.0918C68.3521 83.8992 65.024 80.8345 61.4483 78.0332C53.8809 72.1087 44.73 69.6098 35.6855 70.9932C26.967 72.3401 19.3624 77.1534 14.2585 84.5724C2.88282 101.076 7.49044 124.978 24.307 136.77C34.8533 144.162 44.8008 152.759 53.8457 162.321L56.6464 165.28C25.0081 172.926 -1.55123 194.087 -16.0944 224.001C-19.6115 231.235 -22.3422 238.884 -24.2053 246.74L-107.129 597.213C-110.299 610.616 -103.861 624.169 -91.4807 630.181C-84.2742 633.691 -76.301 634.032 -69.2014 631.578C-64.1129 629.818 -59.4706 626.622 -55.8952 622.127L168.552 340.431C173.582 334.121 177.911 327.25 181.445 319.967C195.968 290.093 196.195 256.156 182.661 226.537L186.726 226.909C199.835 228.124 212.738 230.629 225.075 234.363C232.995 236.754 241.233 236.369 248.651 233.804C259.621 230.011 268.768 221.431 272.327 210.009C275.014 201.428 274.105 192.457 269.777 184.786ZM223.293 155.199C216.761 158.685 210.371 162.629 204.195 166.847C190.842 168.772 177.703 172.926 165.372 179.373L164.205 179.988L165.016 177.388C172.46 153.577 188.577 132.743 209.264 120.232C213.669 117.549 218.577 116.783 223.099 118.038C227.289 119.214 230.767 122.074 232.889 126.106C238.108 136.059 233.624 149.655 223.293 155.199ZM186.517 103.405C190.93 100.72 195.837 99.9542 200.352 101.212C202.433 101.796 204.336 102.797 205.988 104.147C204.291 104.844 202.604 105.571 200.985 106.546C176.667 121.26 158.472 144.726 149.755 172.617L144.176 190.485L126.755 199.615L164.8 121.359C171.243 114.29 178.535 108.23 186.517 103.405ZM139.694 76.7545C139.468 74.8773 138.998 73.1014 138.5 71.3435C140.582 71.8086 142.543 72.6799 144.28 73.9584C148.05 76.7348 150.474 81.0771 151.1 86.1934C152.228 95.4785 151.975 104.954 150.392 114.38L112.357 192.616L108.777 173.276L119.383 157.851C135.927 133.772 143.143 104.968 139.694 76.7545ZM87.6523 89.2629C85.6237 77.7159 93.6098 65.8044 104.605 63.7465C109.087 62.9249 113.492 63.8904 117.004 66.4597C120.774 69.2361 123.198 73.5784 123.825 78.6946C126.753 102.687 120.326 128.238 106.205 148.797L104.661 151.04L104.424 149.742C101.886 136.061 97.0365 123.161 90.293 111.467C89.7874 104.007 88.9401 96.5374 87.6523 89.2629ZM33.4763 123.654C23.8759 116.917 21.0405 102.89 27.4191 93.6249C29.4509 90.6877 32.2177 88.5545 35.3932 87.4565C36.2627 87.1559 37.1685 86.9358 38.1005 86.7914C42.73 86.0795 47.5167 87.4379 51.5772 90.6134C70.6167 105.505 84.1332 128.122 88.6845 152.645L94.0303 181.498L65.4622 151.312C55.6622 140.963 44.8973 131.666 33.4763 123.654ZM167.04 313.021C164.038 319.197 160.336 325.065 156.039 330.461L-68.4081 612.156C-72.2779 617.024 -78.8925 618.507 -84.4861 615.794C-90.0824 613.073 -92.9942 606.953 -91.5589 600.895L-8.66581 250.407C-7.07088 243.685 -4.74008 237.157 -1.71535 230.922C12.0983 202.521 38.6866 183.501 69.7773 179.167L100.988 212.147C101.666 212.861 102.479 213.375 103.326 213.794L103.301 213.844L115.603 219.825L115.618 219.794C116.472 220.21 117.381 220.514 118.366 220.596L163.588 224.768C179.425 251.915 180.871 284.571 167.04 313.021ZM257.061 205.273C253.705 216.008 240.926 222.432 229.714 219.063C216.349 215.024 202.388 212.301 188.206 210.991L146.821 207.169L172.814 193.552C194.896 181.964 221.054 178.642 244.518 184.419C249.524 185.651 253.538 188.572 255.848 192.657C257.977 196.441 258.409 200.922 257.061 205.273Z" fill="#85C226" fill-opacity="0.1"/>
<path d="M67.5171 303.144C46.4752 292.914 30.6745 275.099 23.028 252.984L22.8973 252.606L7.90634 258.212C16.9488 284.365 35.6345 305.432 60.5225 317.531C85.4106 329.631 113.52 331.314 140.051 322.141L134.444 307.15C112.329 314.796 88.559 313.374 67.5171 303.144Z" fill="#85C226" fill-opacity="0.1"/>
<path d="M38.5604 358.255C21.9243 350.168 9.43637 336.083 3.3924 318.603L-11.7292 323.831C-4.2867 345.357 11.0836 362.685 31.5659 372.643L35.0661 374.345C55.5484 384.302 78.6701 385.687 100.196 378.244L94.9674 363.122C77.4868 369.166 58.6968 368.045 42.0607 359.957L38.5604 358.255Z" fill="#85C226" fill-opacity="0.1"/>
<path d="M13.1042 415.069C-1.37748 408.022 -12.2486 395.774 -17.5109 380.554L-18.7265 377.038L-33.8481 382.267L-32.6326 385.783C-25.9743 405.04 -12.2156 420.547 6.10959 429.456C24.4348 438.365 45.1286 439.607 64.3861 432.949L67.9019 431.733L62.6735 416.612L59.1577 417.827C43.9378 423.09 27.5907 422.105 13.1042 415.069Z" fill="#85C226" fill-opacity="0.1"/>
<path d="M-19.0491 481.206C-23.6889 478.951 -27.1735 475.017 -28.857 470.148L-33.0031 458.157L-48.1248 463.385L-43.9787 475.377C-40.8966 484.291 -34.5296 491.468 -26.0437 495.594C-17.5577 499.719 -7.98044 500.293 0.933769 497.211L12.9252 493.065L7.6969 477.943L-4.29458 482.089C-9.16375 483.773 -14.4093 483.462 -19.0491 481.206Z" fill="#85C226" fill-opacity="0.1"/>
</g>
<defs>
<clipPath id="clip0_1151_2">
<rect width="512" height="512" fill="white" transform="translate(-269 167.307) rotate(-19.0729)"/>
</clipPath>
</defs>
</svg>
