<svg width="140" height="140" viewBox="0 0 140 140" fill="none" xmlns="http://www.w3.org/2000/svg">
<g clip-path="url(#clip0_1151_0)">
<path d="M135.548 4.44902C129.993 -1.10629 120.118 -1.4689 106.992 3.40031C96.7582 7.19647 85.0736 13.9528 73.7827 22.5709L62.3185 11.1064L56.5177 16.9073C57.8784 18.2683 58.0307 19.279 58.0266 19.9211C58.0072 23.1197 53.6409 27.3799 51.0323 29.9255C50.6159 30.3319 50.2215 30.7172 49.8603 31.0782C30.5134 50.4248 18.6761 67.7712 14.6771 82.6345C12.6505 90.1669 12.4096 98.267 15.259 105.623L0 120.882L19.1153 139.998L34.3743 124.739C41.6792 127.568 49.8852 127.332 57.3629 125.32C72.2265 121.321 89.5725 109.484 108.919 90.1373C110.958 88.0982 114.039 85.0168 117.116 83.3602C120.627 81.4698 122.041 82.4307 123.09 83.48L128.891 77.6791L117.427 66.2146C126.045 54.9238 132.801 43.2389 136.597 33.0055C141.467 19.8792 141.104 10.0046 135.548 4.44902ZM129.192 29.3628L122.814 22.9846L131.6 14.1987C132.253 17.8242 131.443 23.0604 129.192 29.3628ZM111.212 22.9846L103.699 30.4982L92.7425 19.542C96.0513 17.5477 99.3134 15.7732 102.477 14.2495L111.212 22.9846ZM117.013 28.7855L125.748 37.5203C124.224 40.684 122.45 43.9463 120.455 47.2552L109.499 36.299L117.013 28.7855ZM125.799 8.39777L117.013 17.1837L110.635 10.8053C116.937 8.55419 122.173 7.7442 125.799 8.39777ZM85.682 24.0836L97.8974 36.299L88.9083 45.2882C88.4568 40.1009 86.2511 35.0392 82.2901 31.0782L79.6378 28.4259C81.6482 26.9118 83.6666 25.4616 85.682 24.0836ZM55.6612 36.8791C59.1522 33.3894 62.9316 29.9873 64.9872 25.3768L76.4894 36.8791C82.2318 42.6214 82.2318 51.965 76.4894 57.7073L25.9805 108.216C21.1999 101.788 20.094 94.0765 22.5992 84.7658C26.2201 71.3081 37.3438 55.1964 55.6612 36.8791ZM19.1153 128.396L11.6018 120.882L19.3912 113.093C20.4277 114.493 21.5866 115.839 22.8724 117.125C24.1582 118.411 25.5047 119.57 26.9051 120.606L19.1153 128.396ZM103.118 84.3365C84.8009 102.654 68.6893 113.778 55.2316 117.398C45.9206 119.903 38.2093 118.797 31.7814 114.017L82.2901 63.5082C88.0327 57.7661 97.3757 57.7661 103.118 63.5082L114.932 75.3222C114.304 75.585 113.731 75.8655 113.227 76.1371C109.09 78.3647 105.496 81.9585 103.118 84.3365ZM108.919 57.7073C104.958 53.7463 99.8967 51.54 94.7095 51.0888L103.698 42.0999L115.914 54.3153C114.536 56.331 113.085 58.3494 111.571 60.3596L108.919 57.7073Z" fill="#85C226" fill-opacity="0.1"/>
</g>
<defs>
<clipPath id="clip0_1151_0">
<rect width="140" height="140" fill="white"/>
</clipPath>
</defs>
</svg>
