<svg width="110" height="110" viewBox="0 0 110 110" fill="none" xmlns="http://www.w3.org/2000/svg">
<g clip-path="url(#clip0_1151_18)">
<path d="M52.9332 74.0092C50.3492 69.4492 44.5372 67.8418 39.9772 70.4258C35.4172 73.0098 33.8097 78.8216 36.3937 83.3816C38.9777 87.9416 44.7895 89.5492 49.3495 86.9652C53.9095 84.3812 55.5171 78.5691 52.9332 74.0092ZM40.4719 81.0706C39.1623 78.7595 39.9771 75.8136 42.2882 74.504C44.5995 73.1943 47.5453 74.0091 48.855 76.3202C50.1646 78.6314 49.3498 81.5772 47.0385 82.8869C44.7274 84.1966 41.7816 83.3818 40.4719 81.0706Z" fill="#85C226" fill-opacity="0.2"/>
<path d="M89.4709 47.2118L84.933 39.2038C81.8507 33.7646 74.9179 31.8469 69.4785 34.9292L64.8427 37.5562L62.8341 34.0117L64.9757 29.7664L60.7907 27.655L57.519 34.14L60.7644 39.867L54.3198 43.519L48.2669 35.8558L51.3842 34.0894L47.9433 28.0173C45.3948 23.5198 39.6624 21.9343 35.1649 24.4828L14.0486 36.4487C9.55116 38.9973 7.96559 44.7297 10.5142 49.2272L13.955 55.2992L16.8552 53.6558L26.7215 71.067C24.434 76.4646 24.5866 82.829 27.6935 88.3117C32.9959 97.669 44.9224 100.968 54.2797 95.6654C61.761 91.4259 65.3688 82.9521 63.805 74.9425L76.7443 67.6102C80.4853 73.9646 88.6741 76.1752 95.1135 72.5262C101.619 68.8398 103.912 60.5479 100.226 54.0424C97.9207 49.9746 93.8147 47.5536 89.4709 47.2118ZM92.8023 68.4481C88.5456 70.8602 83.1199 69.3595 80.7078 65.1027C78.2956 60.846 79.7964 55.4203 84.0531 53.0082C88.3098 50.596 93.7355 52.0967 96.1477 56.3535C98.5599 60.6103 97.0591 66.0359 92.8023 68.4481ZM31.7717 86.0007C27.7435 78.8921 30.2496 69.8319 37.3581 65.8038C44.4666 61.7756 53.5271 64.2816 57.5552 71.3901C61.5834 78.4986 59.0773 87.5589 51.9687 91.5871C44.8602 95.6153 35.7999 93.1094 31.7717 86.0007ZM14.5925 46.9161C13.3182 44.6674 14.111 41.8011 16.3598 40.5269L37.4759 28.5611C39.7246 27.2868 42.5908 28.0796 43.8651 30.3283L44.9949 32.3221L15.7224 48.9099L14.5925 46.9161ZM52.1601 48.3472L56.6919 56.3445L50.2236 60.0099C47.2129 59.1147 43.9908 58.9412 40.842 59.5678L32.4759 44.8041L44.1404 38.1942L52.1601 48.3472ZM28.3976 47.1151L36.3063 61.0715C35.8821 61.273 35.4619 61.4903 35.047 61.7254C32.8484 62.9713 30.9845 64.583 29.4879 66.4409L20.9334 51.3448L28.3976 47.1151ZM55.4408 62.4412L63.0811 58.1117L57.0034 47.3863L63.0754 43.9454L74.2374 63.643L62.3165 70.3982C62.1071 69.9536 61.8796 69.5136 61.6334 69.0791C60.0679 66.3164 57.9246 64.0823 55.4408 62.4412ZM84.4037 47.7776C83.4951 48.0601 82.6029 48.4421 81.7421 48.9299C78.7 50.6538 76.5791 53.3847 75.5599 56.469L67.1537 41.6344L71.7895 39.0074C74.98 37.1995 79.0468 38.3243 80.8548 41.5148L84.4037 47.7776Z" fill="#85C226" fill-opacity="0.2"/>
<path d="M85.2332 59.8445L89.3114 57.5335L91.6224 61.6117L87.5442 63.9227L85.2332 59.8445Z" fill="#85C226" fill-opacity="0.2"/>
</g>
<defs>
<clipPath id="clip0_1151_18">
<rect width="80" height="80" fill="white" transform="translate(0 39.441) rotate(-29.5388)"/>
</clipPath>
</defs>
</svg>
